<svg id="visual" viewBox="0 0 900 600" width="900" height="600" xmlns="http://www.w3.org/2000/svg" xmlns:xlink="http://www.w3.org/1999/xlink" version="1.1"><rect x="0" y="0" width="900" height="600" fill="#0a567c"></rect><path d="M0 399L21.5 410.7C43 422.3 86 445.7 128.8 458.8C171.7 472 214.3 475 257.2 476.3C300 477.7 343 477.3 385.8 481C428.7 484.7 471.3 492.3 514.2 498.5C557 504.7 600 509.3 642.8 498C685.7 486.7 728.3 459.3 771.2 436.3C814 413.3 857 394.7 878.5 385.3L900 376L900 601L878.5 601C857 601 814 601 771.2 601C728.3 601 685.7 601 642.8 601C600 601 557 601 514.2 601C471.3 601 428.7 601 385.8 601C343 601 300 601 257.2 601C214.3 601 171.7 601 128.8 601C86 601 43 601 21.5 601L0 601Z" fill="#0a1019" stroke-linecap="round" stroke-linejoin="miter"></path></svg>